<svg width="42" height="43" viewBox="0 0 42 43" fill="none" xmlns="http://www.w3.org/2000/svg">
<path d="M15.7822 23.1934C15.2812 22.9626 14.5769 22.8472 13.6732 22.8367H9.14169V28.466H13.6011C14.5178 28.466 15.2274 28.3453 15.7402 28.0948C16.6623 27.6357 17.1266 26.7583 17.1266 25.4585C17.1266 24.3607 16.6793 23.6039 15.7822 23.1934Z" fill="#FDFDFF"/>
<path d="M15.8399 18.8193C16.4105 18.4717 16.6938 17.854 16.6938 16.9634C16.6938 15.981 16.3186 15.3292 15.5619 15.0157C14.9113 14.7993 14.0785 14.6865 13.0699 14.6865H9.14169V19.3439H13.6076C14.5244 19.3426 15.2681 19.1682 15.8399 18.8193Z" fill="#FDFDFF"/>
<path d="M29.5315 19.2075C28.515 19.2075 27.7281 19.5013 27.1693 20.0745C26.6093 20.6503 26.2604 21.4293 26.1161 22.4156H32.9298C32.8524 21.3677 32.5022 20.5702 31.87 20.0286C31.2444 19.4816 30.464 19.2075 29.5315 19.2075Z" fill="#FDFDFF"/>
<path d="M0 0.922852V42.2271H41.3042V0.922852H0ZM25.2466 11.8955H33.7469V14.0071H25.2466V11.8955ZM20.6364 29.127C20.235 29.7854 19.7379 30.3389 19.1412 30.7875C18.4683 31.3042 17.6735 31.6584 16.7593 31.8472C15.8425 32.0387 14.8484 32.1332 13.7807 32.1332H4.2705V11.022H14.468C17.0361 11.06 18.8592 11.805 19.9347 13.27C20.5813 14.1685 20.9 15.2427 20.9 16.4913C20.9 17.7858 20.576 18.8167 19.9229 19.5997C19.5622 20.0417 19.0257 20.4404 18.3162 20.8011C19.3904 21.1972 20.2049 21.8123 20.7492 22.6675C21.2974 23.5148 21.5715 24.5496 21.5715 25.7576C21.5728 27.0114 21.2659 28.1355 20.6364 29.127ZM37.0311 25.0257H26.0191C26.0807 26.5458 26.604 27.6082 27.6008 28.2181C28.2002 28.5998 28.9282 28.7847 29.7794 28.7847C30.6804 28.7847 31.407 28.5578 31.9736 28.0935C32.2805 27.8469 32.5494 27.4967 32.7842 27.056H36.8199C36.715 27.9545 36.2297 28.8621 35.3549 29.7894C34.004 31.2596 32.1061 31.9981 29.6692 31.9981C27.6546 31.9981 25.8814 31.3724 24.3416 30.1356C22.807 28.8949 22.0332 26.8763 22.0332 24.0788C22.0332 21.4569 22.7257 19.4476 24.1147 18.0494C25.5089 16.6513 27.3084 15.9535 29.5249 15.9535C30.8404 15.9535 32.0235 16.1883 33.0819 16.6578C34.1351 17.1326 35.006 17.8776 35.6893 18.898C36.3123 19.7991 36.7084 20.8392 36.8973 22.0288C37.0048 22.7147 37.0508 23.7168 37.0311 25.0257Z" fill="#FDFDFF"/>
</svg>
