<svg width="61" height="61" viewBox="0 0 61 61" fill="none" xmlns="http://www.w3.org/2000/svg">
<g clip-path="url(#clip0_5_225)">
<path d="M8.66829 0.508545H51.6707C56.401 0.508545 60.2712 4.37876 60.2712 9.10903V52.1114C60.2712 56.8417 56.401 60.7119 51.6707 60.7119H8.66829C3.93803 60.7119 0.0678101 56.8417 0.0678101 52.1114V9.10903C0.0678101 4.37876 3.93803 0.508545 8.66829 0.508545Z" fill="#223D53"/>
<path d="M35.6659 26.3123C33.2282 26.3123 31.2526 28.2365 31.2526 30.6107C31.2526 32.9849 33.2282 34.9091 35.6659 34.9091H35.8086C38.2462 34.9091 40.2218 32.9849 40.2218 30.6107C40.2218 28.2365 38.2462 26.3123 35.8086 26.3123H35.6659ZM35.8086 37.003H35.6659C32.041 37.003 29.1027 34.1412 29.1027 30.6107C29.1027 27.0802 32.041 24.2184 35.6659 24.2184H35.8086C39.4334 24.2184 42.3717 27.0802 42.3717 30.6107C42.3717 34.1412 39.4334 37.003 35.8086 37.003ZM24.5468 37.003C22.1091 37.003 20.1324 38.9272 20.1324 41.3014C20.1324 43.6756 22.108 45.5998 24.5456 45.5998C24.5585 45.5998 24.5725 45.5998 24.5854 45.5998H24.583C24.5865 45.5998 24.5912 45.5998 24.5959 45.5998C27.0768 45.5998 29.091 43.6471 29.1039 41.2331V37.003H24.5468ZM24.5819 47.6949C24.5667 47.6949 24.5479 47.6949 24.5292 47.6949C20.9044 47.6949 17.9661 44.8331 17.9661 41.3026C17.9661 37.772 20.9044 34.9102 24.5292 34.9102C24.5351 34.9102 24.5409 34.9102 24.5468 34.9102H31.2526V41.2331C31.2386 44.8046 28.2617 47.6949 24.5936 47.6949C24.5901 47.6949 24.5865 47.6949 24.583 47.6949H24.5819ZM24.5468 26.3123C22.1091 26.3123 20.1335 28.2365 20.1335 30.6107C20.1335 32.9849 22.1091 34.9102 24.5468 34.9102L29.1027 34.9091V26.3135L24.5468 26.3123ZM31.2514 37.003H24.5468C20.9219 37.003 17.9836 34.1412 17.9836 30.6107C17.9836 27.0802 20.9219 24.2184 24.5468 24.2184H31.2526V37.003H31.2514ZM24.5468 15.6216C22.1091 15.6216 20.1335 17.5458 20.1335 19.92C20.1335 22.2942 22.1091 24.2184 24.5468 24.2184H29.1027V15.6205L24.5468 15.6216ZM31.2514 26.3123H24.5468C20.9219 26.3123 17.9825 23.4505 17.9825 19.9189C17.9825 16.3872 20.9207 13.5254 24.5468 13.5254H31.2526V26.3112L31.2514 26.3123ZM31.2514 24.2184H35.8086C38.2415 24.2127 40.2101 22.2908 40.2101 19.92C40.2101 17.5492 38.2404 15.6273 35.8074 15.6216H31.2514V24.2184ZM35.8086 26.3123L29.1027 26.3135V13.5265H35.8086C39.4334 13.5265 42.3729 16.3883 42.3729 19.92C42.3729 23.4517 39.4346 26.3123 35.8086 26.3123Z" fill="white"/>
</g>
<defs>
<clipPath id="clip0_5_225">
<rect width="60.2034" height="60.2034" fill="white" transform="translate(0.0678101 0.508545)"/>
</clipPath>
</defs>
</svg>
