<svg width="42" height="41" viewBox="0 0 42 41" fill="none" xmlns="http://www.w3.org/2000/svg">
<path d="M28 37.5834V30.9721C28.0656 30.1575 27.9529 29.3386 27.6693 28.5698C27.3856 27.8011 26.9376 27.1 26.355 26.5134C31.85 25.9155 37.625 23.8825 37.625 14.555C37.6246 12.1699 36.6847 9.87625 35 8.14879C35.7977 6.06207 35.7413 3.75555 34.8425 1.70837C34.8425 1.70837 32.7775 1.11045 28 4.2367C23.989 3.17552 19.761 3.17552 15.75 4.2367C10.9725 1.11045 8.9075 1.70837 8.9075 1.70837C8.00866 3.75555 7.95225 6.06207 8.75 8.14879C7.05272 9.88906 6.11191 12.2035 6.125 14.6063C6.125 23.8655 11.9 25.8984 17.395 26.5646C16.8192 27.1454 16.3752 27.838 16.0918 28.5974C15.8084 29.3568 15.6919 30.1659 15.75 30.9721V37.5834M15.75 32.4584C7 35.0209 7 28.1875 3.5 27.3334L15.75 32.4584Z" stroke="#FDFDFF" stroke-linecap="round" stroke-linejoin="round"/>
</svg>
