<svg width="61" height="61" viewBox="0 0 61 61" fill="none" xmlns="http://www.w3.org/2000/svg">
<g clip-path="url(#clip0_5_222)">
<path d="M27.5411 26.141L29.7973 33.2068H22.4334L24.6469 26.141C25.1579 24.4384 25.5833 22.4379 26.0088 20.7779H26.0939C26.5197 22.438 26.9877 24.3958 27.5411 26.141ZM60.9243 10.5817V50.639C60.9243 56.1469 56.4178 60.6533 50.9099 60.6533H10.8528C5.34489 60.6532 0.838455 56.1468 0.838455 50.6389V10.5817C0.838455 5.07382 5.34489 0.567383 10.8528 0.567383H50.91C56.4178 0.567383 60.9243 5.07382 60.9243 10.5817ZM38.906 45.2949L29.584 16.6069H22.9017L13.7079 45.2949H19.1136L21.5825 37.1651H30.6912L33.2877 45.2949H38.906ZM47.7571 24.5661H42.479V45.2949H47.7571V24.5661ZM48.0548 18.7775C48.0123 17.16 46.9058 15.9258 45.1179 15.9258C43.3727 15.9258 42.1811 17.16 42.1811 18.7775C42.1811 20.3525 43.3302 21.5867 45.0754 21.5867C46.9057 21.5866 48.0548 20.3524 48.0548 18.7775Z" fill="#223D53"/>
</g>
<defs>
<clipPath id="clip0_5_222">
<rect width="60.2034" height="60.2034" fill="white" transform="translate(0.779663 0.508545)"/>
</clipPath>
</defs>
</svg>
