<svg width="41" height="41" viewBox="0 0 41 41" fill="none" xmlns="http://www.w3.org/2000/svg">
<path d="M27.3333 13.6667C30.0518 13.6667 32.6589 14.7467 34.5812 16.6689C36.5034 18.5912 37.5833 21.1983 37.5833 23.9167V35.8751H30.75V23.9167C30.75 23.0106 30.39 22.1416 29.7493 21.5008C29.1085 20.8601 28.2395 20.5001 27.3333 20.5001C26.4272 20.5001 25.5581 20.8601 24.9174 21.5008C24.2766 22.1416 23.9167 23.0106 23.9167 23.9167V35.8751H17.0833V23.9167C17.0833 21.1983 18.1632 18.5912 20.0855 16.6689C22.0077 14.7467 24.6149 13.6667 27.3333 13.6667V13.6667Z" stroke="#FDFDFF" stroke-linecap="round" stroke-linejoin="round"/>
<path d="M10.25 15.375H3.41667V35.875H10.25V15.375Z" stroke="#FDFDFF" stroke-linecap="round" stroke-linejoin="round"/>
<path d="M6.83334 10.2501C8.72031 10.2501 10.25 8.72039 10.25 6.83341C10.25 4.94644 8.72031 3.41675 6.83334 3.41675C4.94637 3.41675 3.41667 4.94644 3.41667 6.83341C3.41667 8.72039 4.94637 10.2501 6.83334 10.2501Z" stroke="#FDFDFF" stroke-linecap="round" stroke-linejoin="round"/>
</svg>
