<svg width="61" height="61" viewBox="0 0 61 61" fill="none" xmlns="http://www.w3.org/2000/svg">
<g clip-path="url(#clip0_5_219)">
<path d="M50.6218 0.567383H10.5647C5.05676 0.567383 0.550323 5.07382 0.550323 10.5817V50.639C0.550323 56.1469 5.05676 60.6533 10.5647 60.6533H50.6219C56.1298 60.6533 60.6363 56.1469 60.6363 50.639V10.5817C60.6361 5.07382 56.1297 0.567383 50.6218 0.567383ZM29.3385 31.1422C27.253 33.2277 23.9753 34.2071 20.2723 34.2071C19.2933 34.2071 18.3996 34.1642 17.7184 34.0365V44.8478H12.526V16.5428C14.3988 16.2024 16.9953 15.9468 20.5276 15.9468C24.3588 15.9468 27.168 16.7555 28.9983 18.288C30.7009 19.6928 31.8074 21.9485 31.8074 24.63C31.8073 27.3542 30.9561 29.6099 29.3385 31.1422ZM40.2329 45.2738C37.7216 45.2738 35.4658 44.6778 33.9335 43.8263L34.9549 40.0382C36.1466 40.7618 38.4027 41.5282 40.2755 41.5282C42.5737 41.5282 43.5956 40.5917 43.5956 39.2295C43.5956 37.8252 42.7444 37.1013 40.1904 36.2076C36.1465 34.8028 34.4445 32.5896 34.4869 30.1633C34.4869 26.5028 37.5089 23.6512 42.3185 23.6512C44.6172 23.6512 46.6177 24.2472 47.8092 24.8853L46.7877 28.5884C45.8938 28.0779 44.2336 27.3967 42.4036 27.3967C40.5307 27.3967 39.5092 28.2906 39.5092 29.5673C39.5092 30.8871 40.4882 31.5257 43.1273 32.462C46.8728 33.8239 48.618 35.7392 48.6606 38.8042C48.6605 42.5497 45.7238 45.2738 40.2329 45.2738ZM26.5718 24.8428C26.5718 28.2054 24.188 30.1208 20.2723 30.1208C19.2083 30.1208 18.357 30.0782 17.7184 29.9081V20.2033C18.272 20.0758 19.2935 19.9481 20.7408 19.9481C24.3588 19.9481 26.5718 21.6507 26.5718 24.8428Z" fill="#223D53"/>
</g>
<defs>
<clipPath id="clip0_5_219">
<rect width="60.2034" height="60.2034" fill="white" transform="translate(0.491516 0.508545)"/>
</clipPath>
</defs>
</svg>
