<svg width="61" height="61" viewBox="0 0 61 61" fill="none" xmlns="http://www.w3.org/2000/svg">
<g clip-path="url(#clip0_5_227)">
<path d="M8.95644 0.508545H51.9589C56.6891 0.508545 60.5593 4.37876 60.5593 9.10903V52.1114C60.5593 56.8417 56.6891 60.7119 51.9589 60.7119H8.95644C4.22617 60.7119 0.355957 56.8417 0.355957 52.1114V9.10903C0.355957 4.37876 4.22617 0.508545 8.95644 0.508545Z" fill="#223D53"/>
<path d="M49.2712 45.661L40.0525 49.4237L24.8136 34.3729L15.2186 41.8983L11.4559 40.017V21.2034L15.2186 19.3221L24.8136 26.8475L39.8644 11.7966L49.2712 15.5593V45.661ZM29.8932 30.6102L39.8644 38.3237V22.7085L29.8932 30.6102ZM15.2186 36.4424L21.0508 30.6102L15.4068 24.778L15.2186 36.4424Z" fill="white"/>
</g>
<defs>
<clipPath id="clip0_5_227">
<rect width="60.2034" height="60.2034" fill="white" transform="translate(0.355957 0.508545)"/>
</clipPath>
</defs>
</svg>
